<svg width="157" height="124" viewBox="0 0 157 124" fill="currentColor" xmlns="http://www.w3.org/2000/svg">
<path d="M124.058 84.7266L124.836 76.1797C124.836 64.8313 122.65 55.7531 114.644 49.7844C110.262 41.0203 100.498 30.1266 78.9906 30.125C57.4937 30.125 47.7343 41.0203 43.3562 49.786C35.3499 55.7531 33.164 64.8328 33.164 76.1813L33.9421 84.7281C32.8624 85.7953 32.1249 87.4516 32.1249 89.8844C32.1249 96.4094 35.9406 97.286 37.5062 97.3703C38.2843 110.366 51.3453 123.875 79.0015 123.875C108.366 123.875 119.705 108.47 120.491 97.3719C121.45 97.3281 122.733 97.0375 123.831 96.0016C125.189 94.7235 125.875 92.6641 125.875 89.8844C125.875 87.4516 125.137 85.7953 124.058 84.7266ZM122.23 94.311C121.18 95.2985 119.644 95.0016 119.639 95.0031L118.203 94.6594V96.1328C118.203 106.348 107.762 121.55 79.0015 121.55C50.2406 121.55 39.8015 106.35 39.8015 96.1344L39.7906 94.6891L38.3749 95.0016C38.1803 95.0385 37.9824 95.0558 37.7843 95.0531C35.0328 95.0531 34.4546 92.2422 34.4546 89.8844C34.4546 86.2281 36.4062 85.461 38.0421 85.461C38.2062 85.461 38.3156 85.4719 38.3343 85.4735L38.6312 85.511L38.9124 85.4031C42.464 84.0094 44.8359 81.8828 45.964 79.0844C48.1453 73.661 45.1109 67.1031 43.2968 63.1828C42.8359 62.186 42.3578 61.1578 42.2328 60.6703C42.5812 58.0781 46.8468 32.4485 79.0015 32.4485C111.152 32.4516 115.422 58.0735 115.769 60.6703C115.642 61.1594 115.167 62.1875 114.705 63.1828C112.891 67.1016 109.853 73.661 112.036 79.0844C113.162 81.8828 115.534 84.0094 119.087 85.4031L119.369 85.5078L119.659 85.475C119.758 85.465 119.858 85.4603 119.958 85.461C121.594 85.461 123.545 86.2281 123.545 89.8844C123.545 91.9703 123.089 93.5031 122.23 94.311Z" fill="currentColor"/>
<path d="M79.0015 99.536C71.4265 99.536 65.2874 103.016 65.2874 106.938C65.2874 107.464 65.4031 108.778 65.6171 108.778H70.2437L71.1578 106.589L71.9765 108.778H92.3281C92.5749 108.778 92.7124 107.406 92.7124 106.836C92.7124 102.916 86.5749 99.536 79.0015 99.536ZM79.1046 41.5766C82.7443 41.4378 86.3888 41.4983 90.0218 41.7578C93.6671 42.0235 97.3015 42.5188 101.027 43.1219C97.7124 41.3188 94.0687 40.125 90.3437 39.4016C86.614 38.6531 82.7921 38.4297 78.9984 38.5328C75.2187 38.6848 71.4605 39.1795 67.7703 40.011C64.0828 40.8 60.5499 41.9985 56.9749 43.1219C60.7703 43.2391 64.4812 42.6766 68.1468 42.35C71.8203 42.0063 75.4624 41.6703 79.1046 41.5766ZM79.0859 47.9969C83.5238 47.8578 87.9658 47.9173 92.3984 48.175C96.8421 48.4406 101.275 48.9328 105.778 49.5438C101.614 47.711 97.1687 46.5281 92.6593 45.8094C88.1468 45.0672 83.5609 44.8485 78.9984 44.9516C74.4449 45.1017 69.9092 45.5943 65.4296 46.425C60.9546 47.2094 56.6062 48.4141 52.2218 49.5422C56.7874 49.661 61.2828 49.1031 65.7421 48.7735C70.2062 48.4281 74.6453 48.0922 79.0859 47.9969ZM96.9078 70.9563C94.3576 70.954 91.8624 71.6978 89.7297 73.096C87.5969 74.4941 85.9197 76.4856 84.9046 78.825C80.7312 78.6016 76.8062 78.7985 73.239 79.1844C72.2713 76.7549 70.5967 74.6718 68.4319 73.2046C66.2672 71.7374 63.7119 70.9536 61.0968 70.9547C53.8812 70.9547 48.0249 76.7891 48.0249 83.9938C48.0249 91.1938 53.8812 97.0344 61.0968 97.0344C68.314 97.0344 74.1718 91.1953 74.1718 83.9938C74.1718 83.8172 74.1499 83.6407 74.1437 83.4625C77.1593 83.1547 80.4281 82.9938 83.8765 83.1297C83.8531 83.4156 83.8296 83.7 83.8296 83.9938C83.8296 91.1938 89.6859 97.0344 96.9062 97.0344C104.12 97.0344 109.975 91.1953 109.975 83.9938C109.977 76.7906 104.122 70.9563 96.9078 70.9563ZM61.0968 92.686C56.2843 92.686 52.3828 88.7969 52.3828 83.9938C52.3828 79.1907 56.2843 75.3 61.0968 75.3C65.9093 75.3 69.8124 79.1907 69.8124 83.9938C69.8124 88.7969 65.9093 92.686 61.0968 92.686ZM96.9046 92.686C92.0921 92.686 88.189 88.7969 88.189 83.9938C88.189 79.1907 92.0921 75.3 96.9046 75.3C101.717 75.3 105.62 79.1907 105.62 83.9938C105.62 88.7969 101.717 92.686 96.9046 92.686Z" fill="currentColor"/>
<path d="M15.8074 16.9798L9.49833 20.8086L10.6508 22.8464C12.9898 21.4269 15.0352 20.5646 16.7871 20.2594C19.4768 19.8343 21.6746 21.0271 23.3805 23.838C24.7999 26.177 25.153 28.4473 24.4396 30.6488C23.7263 32.8504 21.8513 34.8725 18.8148 36.7153C16.3527 38.2095 14.4468 39.0011 13.0972 39.0902C11.7352 39.1588 10.7055 38.6187 10.0082 37.4697C8.788 35.459 8.88573 34.0241 10.3014 33.1649C10.6707 32.9408 11.3855 32.6614 12.4458 32.3268C13.5265 31.9797 14.2618 31.6879 14.6517 31.4513C15.5955 30.8786 16.2184 30.3321 16.5203 29.812C16.8223 29.2918 16.7803 28.7137 16.3943 28.0777C15.697 26.9287 13.4197 27.5247 9.56246 29.8655C8.49555 30.513 7.64451 30.7066 7.00934 30.4464C6.37416 30.1862 5.627 29.3482 4.76785 27.9325L1.42466 22.4236C0.901706 21.5619 0.772181 20.7702 1.03609 20.0485C1.30806 19.2939 2.10061 18.5182 3.41372 17.7213L12.1541 12.417C13.1184 11.8318 13.8871 11.618 14.46 11.7757C15.0329 11.9333 15.6493 12.5558 16.3093 13.6433C16.7949 14.4434 16.9999 15.1051 16.9243 15.6282C16.8568 16.1183 16.4845 16.5689 15.8074 16.9798Z" fill="currentColor"/>
<path d="M43.3031 25.1699C41.5479 25.748 39.881 26.0191 38.3025 25.9831C36.7468 25.9396 35.3707 25.559 34.1741 24.8413C32.9928 24.0934 32.1769 23.0355 31.7264 21.6678C30.9155 19.2059 31.4585 16.9803 33.3554 14.991C31.4299 14.3618 30.1556 13.1012 29.5324 11.2092C28.8792 9.22599 29.14 7.40924 30.3146 5.75891C31.4818 4.0858 33.2849 2.84755 35.724 2.04418C38.1631 1.2408 40.3378 1.16887 42.248 1.82839C44.1735 2.4576 45.4628 3.7638 46.116 5.747C46.7392 7.63901 46.4635 9.41018 45.2888 11.0605C47.9585 11.5709 49.695 13.0457 50.4984 15.4848C51.1741 17.5364 50.8182 19.4477 49.4306 21.2187C48.0582 22.9594 46.0158 24.2764 43.3031 25.1699ZM42.8508 17.9279C42.558 17.0389 42.1546 16.3126 41.6405 15.7492C41.1189 15.1629 40.5846 14.9599 40.0375 15.1401C39.4676 15.3278 39.1357 15.8161 39.0418 16.6051C38.9479 17.3941 39.0436 18.2217 39.3289 19.0879C39.5091 19.635 39.7388 20.1405 40.018 20.6045C40.3124 21.0381 40.6527 21.3809 41.0389 21.6327C41.4403 21.8542 41.8348 21.9012 42.2223 21.7735C42.7922 21.5858 43.1088 21.1278 43.1721 20.3994C43.2507 19.6408 43.1436 18.8169 42.8508 17.9279ZM39.3812 7.62414C39.1485 6.91748 38.7976 6.35081 38.3286 5.92412C37.8748 5.46713 37.3972 5.32123 36.8957 5.48641C36.531 5.60654 36.2607 5.85982 36.0847 6.24626C35.9316 6.62519 35.8579 7.05373 35.8638 7.53189C35.8925 8.00255 35.9857 8.47723 36.1433 8.95593C36.3986 9.73097 36.7683 10.3546 37.2523 10.8269C37.7364 11.2992 38.2405 11.449 38.7648 11.2763C39.3119 11.0961 39.6209 10.6532 39.6917 9.94764C39.7625 9.24207 39.659 8.46757 39.3812 7.62414Z" fill="currentColor"/>
<path d="M82.1646 6.58281C83.0286 6.58638 83.7122 6.68521 84.2154 6.87929C84.7187 7.04937 85.0775 7.33885 85.2918 7.74774C85.5061 8.15663 85.6119 8.70907 85.609 9.40507C85.6053 10.2931 85.3027 10.9158 84.7013 11.2733C84.0999 11.6069 83.1392 11.7709 81.8192 11.7654L76.8872 11.745C74.9433 11.737 73.9747 10.893 73.9817 9.21302C73.989 7.43704 75.0487 6.55341 77.1607 6.56213L82.1646 6.58281Z" fill="currentColor"/>
<path d="M120.707 16.7627C119.402 16.7316 118.203 16.5336 117.11 16.1687C114.925 15.4388 113.354 14.1553 112.399 12.3181C111.444 10.481 111.316 8.51521 112.015 6.42091C112.54 4.85019 113.349 3.60218 114.442 2.67688C115.536 1.75158 116.807 1.20206 118.257 1.02832C119.737 0.839414 121.308 1.02245 122.97 1.57741C124.518 2.09437 125.815 2.79333 126.862 3.6743C127.916 4.5325 128.682 5.45885 129.16 6.45334C129.645 7.42507 129.944 8.49914 130.057 9.67558C130.193 10.8596 130.17 11.9904 129.987 13.068C129.835 14.1305 129.572 15.2194 129.2 16.3349C128.729 17.7462 128.155 19.0095 127.479 20.1248C126.833 21.2249 126.047 22.177 125.121 22.9809C124.217 23.7925 123.203 24.4029 122.08 24.8121C120.979 25.2289 119.716 25.4141 118.289 25.3678C116.885 25.329 115.375 25.0398 113.758 24.5C111.914 23.8842 110.496 22.9803 109.502 21.7882C108.509 20.5961 108.217 19.3854 108.628 18.1561C108.886 17.3821 109.368 16.7715 110.074 16.3241C110.78 15.8767 111.532 15.786 112.329 16.0521C112.716 16.1814 113.258 16.6029 113.956 17.3167C114.654 18.0305 115.333 18.4976 115.993 18.7181C116.539 18.9005 117.12 18.9426 117.735 18.8443C118.349 18.746 118.919 18.5186 119.443 18.1622C119.974 17.783 120.396 17.3165 120.707 16.7627ZM118.742 8.89507C118.415 9.87393 118.274 10.7884 118.319 11.6384C118.372 12.4657 118.671 12.9706 119.218 13.153C119.582 13.2747 119.961 13.199 120.356 12.926C120.781 12.6378 121.154 12.2434 121.473 11.7427C121.799 11.2192 122.061 10.6615 122.259 10.0696C122.578 9.11354 122.7 8.21805 122.625 7.38316C122.549 6.54828 122.227 6.03581 121.658 5.84575C121.089 5.65569 120.539 5.86409 120.007 6.47095C119.498 7.08541 119.076 7.89345 118.742 8.89507Z" fill="currentColor"/>
<path d="M145.641 28.7434C144.375 28.4242 143.249 27.9657 142.265 27.3681C140.295 26.1727 139.048 24.5736 138.523 22.5705C137.998 20.5675 138.308 18.6222 139.453 16.7346C140.313 15.3189 141.378 14.2808 142.649 13.6204C143.92 12.96 145.281 12.7055 146.734 12.8569C148.219 13.0002 149.71 13.5263 151.208 14.4353C152.603 15.282 153.714 16.2507 154.54 17.3415C155.378 18.4118 155.92 19.4847 156.166 20.5602C156.424 21.6152 156.478 22.7289 156.328 23.9012C156.199 25.0859 155.925 26.1835 155.509 27.194C155.125 28.1963 154.628 29.2002 154.018 30.2056C153.246 31.4776 152.407 32.5827 151.501 33.5207C150.628 34.4506 149.65 35.2051 148.569 35.7841C147.508 36.3756 146.385 36.7466 145.199 36.897C144.033 37.0599 142.76 36.9609 141.378 36.6C140.018 36.2515 138.609 35.6352 137.152 34.7512C135.49 33.7426 134.307 32.5471 133.602 31.1647C132.897 29.7823 132.88 28.5371 133.553 27.4292C133.976 26.7316 134.582 26.2428 135.369 25.9627C136.157 25.6827 136.91 25.7606 137.628 26.1964C137.976 26.408 138.412 26.9391 138.935 27.7897C139.457 28.6402 140.016 29.246 140.611 29.6071C141.103 29.9059 141.66 30.0754 142.282 30.1156C142.903 30.1558 143.509 30.06 144.098 29.8284C144.7 29.5762 145.215 29.2146 145.641 28.7434ZM145.466 20.636C144.93 21.5182 144.591 22.3788 144.446 23.2178C144.315 24.0362 144.495 24.5948 144.987 24.8936C145.316 25.0929 145.703 25.103 146.148 24.9242C146.626 24.7373 147.077 24.4349 147.499 24.0172C147.933 23.579 148.312 23.0932 148.636 22.5597C149.159 21.698 149.476 20.8517 149.587 20.0208C149.698 19.1899 149.497 18.6188 148.984 18.3076C148.471 17.9963 147.889 18.0777 147.236 18.5519C146.604 19.0385 146.014 19.7332 145.466 20.636Z" fill="currentColor"/>
</svg>
